<svg width="20" height="20" viewBox="0 0 20 20" fill="none" xmlns="http://www.w3.org/2000/svg">
<path d="M10 3.75C9.91712 3.75 9.83763 3.71708 9.77903 3.65847C9.72042 3.59987 9.6875 3.52038 9.6875 3.4375V0.625C9.6875 0.54212 9.72042 0.462634 9.77903 0.404029C9.83763 0.345424 9.91712 0.3125 10 0.3125C10.0829 0.3125 10.1624 0.345424 10.221 0.404029C10.2796 0.462634 10.3125 0.54212 10.3125 0.625V3.4375C10.3125 3.52038 10.2796 3.59987 10.221 3.65847C10.1624 3.71708 10.0829 3.75 10 3.75Z" fill="#FF7900"/>
<path d="M4.375 3.75C4.29212 3.75 4.21263 3.71708 4.15403 3.65847C4.09542 3.59987 4.0625 3.52038 4.0625 3.4375V0.625C4.0625 0.54212 4.09542 0.462634 4.15403 0.404029C4.21263 0.345424 4.29212 0.3125 4.375 0.3125C4.45788 0.3125 4.53737 0.345424 4.59597 0.404029C4.65458 0.462634 4.6875 0.54212 4.6875 0.625V3.4375C4.6875 3.52038 4.65458 3.59987 4.59597 3.65847C4.53737 3.71708 4.45788 3.75 4.375 3.75Z" fill="#FF7900"/>
<path d="M19.0625 2.1875H16.5625V3.4375C16.5625 3.95438 16.1419 4.375 15.625 4.375C15.1081 4.375 14.6875 3.95438 14.6875 3.4375V2.1875H10.9375V3.4375C10.9375 3.95438 10.5169 4.375 10 4.375C9.48312 4.375 9.0625 3.95438 9.0625 3.4375V2.1875H5.3125V3.4375C5.3125 3.95438 4.89187 4.375 4.375 4.375C3.85812 4.375 3.4375 3.95438 3.4375 3.4375V2.1875H0.9375C0.77174 2.1875 0.612769 2.25335 0.495558 2.37056C0.378348 2.48777 0.3125 2.64674 0.3125 2.8125V19.0625C0.3125 19.2283 0.378348 19.3872 0.495558 19.5044C0.612769 19.6217 0.77174 19.6875 0.9375 19.6875H19.0625C19.2283 19.6875 19.3872 19.6217 19.5044 19.5044C19.6217 19.3872 19.6875 19.2283 19.6875 19.0625V2.8125C19.6875 2.64674 19.6217 2.48777 19.5044 2.37056C19.3872 2.25335 19.2283 2.1875 19.0625 2.1875Z" fill="#FF7900"/>
<path d="M15.625 3.75C15.5421 3.75 15.4626 3.71708 15.404 3.65847C15.3454 3.59987 15.3125 3.52038 15.3125 3.4375V0.625C15.3125 0.54212 15.3454 0.462634 15.404 0.404029C15.4626 0.345424 15.5421 0.3125 15.625 0.3125C15.7079 0.3125 15.7874 0.345424 15.846 0.404029C15.9046 0.462634 15.9375 0.54212 15.9375 0.625V3.4375C15.9375 3.52038 15.9046 3.59987 15.846 3.65847C15.7874 3.71708 15.7079 3.75 15.625 3.75Z" fill="#FF7900"/>
<path d="M3.4375 16.875H6.5625C6.64538 16.875 6.72487 16.8421 6.78347 16.7835C6.84208 16.7249 6.875 16.6454 6.875 16.5625V14.0625C6.875 13.9796 6.84208 13.9001 6.78347 13.8415C6.72487 13.7829 6.64538 13.75 6.5625 13.75H3.4375C3.35462 13.75 3.27513 13.7829 3.21653 13.8415C3.15792 13.9001 3.125 13.9796 3.125 14.0625V16.5625C3.125 16.6454 3.15792 16.7249 3.21653 16.7835C3.27513 16.8421 3.35462 16.875 3.4375 16.875Z" fill="white"/>
<path d="M3.4375 12.5H6.5625C6.64538 12.5 6.72487 12.4671 6.78347 12.4085C6.84208 12.3499 6.875 12.2704 6.875 12.1875V9.6875C6.875 9.60462 6.84208 9.52513 6.78347 9.46653C6.72487 9.40792 6.64538 9.375 6.5625 9.375H3.4375C3.35462 9.375 3.27513 9.40792 3.21653 9.46653C3.15792 9.52513 3.125 9.60462 3.125 9.6875V12.1875C3.125 12.2704 3.15792 12.3499 3.21653 12.4085C3.27513 12.4671 3.35462 12.5 3.4375 12.5Z" fill="white"/>
<path d="M8.4375 16.875H11.5625C11.6454 16.875 11.7249 16.8421 11.7835 16.7835C11.8421 16.7249 11.875 16.6454 11.875 16.5625V14.0625C11.875 13.9796 11.8421 13.9001 11.7835 13.8415C11.7249 13.7829 11.6454 13.75 11.5625 13.75H8.4375C8.35462 13.75 8.27513 13.7829 8.21653 13.8415C8.15792 13.9001 8.125 13.9796 8.125 14.0625V16.5625C8.125 16.6454 8.15792 16.7249 8.21653 16.7835C8.27513 16.8421 8.35462 16.875 8.4375 16.875Z" fill="white"/>
<path d="M8.4375 12.5H11.5625C11.6454 12.5 11.7249 12.4671 11.7835 12.4085C11.8421 12.3499 11.875 12.2704 11.875 12.1875V9.6875C11.875 9.60462 11.8421 9.52513 11.7835 9.46653C11.7249 9.40792 11.6454 9.375 11.5625 9.375H8.4375C8.35462 9.375 8.27513 9.40792 8.21653 9.46653C8.15792 9.52513 8.125 9.60462 8.125 9.6875V12.1875C8.125 12.2704 8.15792 12.3499 8.21653 12.4085C8.27513 12.4671 8.35462 12.5 8.4375 12.5Z" fill="white"/>
<path d="M13.4375 12.5H16.5625C16.6454 12.5 16.7249 12.4671 16.7835 12.4085C16.8421 12.3499 16.875 12.2704 16.875 12.1875V9.6875C16.875 9.60462 16.8421 9.52513 16.7835 9.46653C16.7249 9.40792 16.6454 9.375 16.5625 9.375H13.4375C13.3546 9.375 13.2751 9.40792 13.2165 9.46653C13.1579 9.52513 13.125 9.60462 13.125 9.6875V12.1875C13.125 12.2704 13.1579 12.3499 13.2165 12.4085C13.2751 12.4671 13.3546 12.5 13.4375 12.5Z" fill="white"/>
</svg>
