<svg width="20" height="20" viewBox="0 0 20 20" fill="none" xmlns="http://www.w3.org/2000/svg">
<g clip-path="url(#clip0)">
<path d="M13.2573 10.1025L19.9998 14.365V5.66003L13.2573 10.1025Z" fill="#FF7900"/>
<path d="M0 5.66003V14.365L6.7425 10.1025L0 5.66003Z" fill="#FF7900"/>
<path d="M18.7501 3.125H1.2501C0.626348 3.125 0.131348 3.59 0.0375977 4.18875L10.0001 10.7525L19.9626 4.18875C19.8688 3.59 19.3738 3.125 18.7501 3.125Z" fill="#FF7900"/>
<path d="M12.1125 10.8575L10.3438 12.0225C10.2388 12.0912 10.12 12.125 10 12.125C9.88004 12.125 9.76129 12.0912 9.65629 12.0225L7.88754 10.8562L0.0400391 15.82C0.136289 16.4137 0.628789 16.875 1.25004 16.875H18.75C19.3713 16.875 19.8638 16.4137 19.96 15.82L12.1125 10.8575Z" fill="#FF7900"/>
</g>
<defs>
<clipPath id="clip0">
<rect width="20" height="20" fill="white"/>
</clipPath>
</defs>
</svg>
