<svg width="120" height="120" viewBox="0 0 120 120" fill="none" xmlns="http://www.w3.org/2000/svg">
<path d="M102.447 17.5535C79.0429 -5.85035 40.96 -5.85266 17.5538 17.5535C-5.85241 40.9597 -5.8501 79.0404 17.5538 102.447C40.9577 125.853 79.0406 125.853 102.447 102.447C125.851 79.0404 125.851 40.9574 102.447 17.5535ZM83.672 83.6717C81.8688 85.4749 78.946 85.4749 77.1428 83.6717L60.0003 66.5292L42.0428 84.4867C40.2396 86.2899 37.3167 86.2899 35.5136 84.4867C33.7105 82.6836 33.7105 79.7607 35.5136 77.9576L53.4711 60L36.3286 42.8575C34.5255 41.0544 34.5255 38.1292 36.3286 36.3283C38.1317 34.5252 41.0546 34.5252 42.8578 36.3283L60.0003 53.4709L76.3255 37.1456C78.1286 35.3425 81.0515 35.3425 82.8547 37.1456C84.6578 38.9488 84.6578 41.8717 82.8547 43.6748L66.5294 60L83.672 77.1426C85.4751 78.9457 85.4751 81.8686 83.672 83.6717Z" fill="#EF0E0E"/>
</svg>
