<svg width="16" height="20" viewBox="0 0 16 20" fill="none" xmlns="http://www.w3.org/2000/svg">
<path d="M11.125 0.808105V4.99998H15.3169L11.125 0.808105Z" fill="#FF7900"/>
<path d="M10.5 5.3125V0.3125H0.8125C0.467187 0.3125 0.1875 0.592187 0.1875 0.9375V19.0625C0.1875 19.4078 0.467187 19.6875 0.8125 19.6875H15.1875C15.5328 19.6875 15.8125 19.4078 15.8125 19.0625V5.625H10.8125C10.64 5.625 10.5 5.485 10.5 5.3125ZM4.25 5.3125H6.75C6.92281 5.3125 7.0625 5.4525 7.0625 5.625C7.0625 5.7975 6.92281 5.9375 6.75 5.9375H4.25C4.07719 5.9375 3.9375 5.7975 3.9375 5.625C3.9375 5.4525 4.07719 5.3125 4.25 5.3125ZM11.75 15.3125H4.25C4.07719 15.3125 3.9375 15.1725 3.9375 15C3.9375 14.8275 4.07719 14.6875 4.25 14.6875H11.75C11.9228 14.6875 12.0625 14.8275 12.0625 15C12.0625 15.1725 11.9228 15.3125 11.75 15.3125ZM11.75 12.1875H4.25C4.07719 12.1875 3.9375 12.0475 3.9375 11.875C3.9375 11.7025 4.07719 11.5625 4.25 11.5625H11.75C11.9228 11.5625 12.0625 11.7025 12.0625 11.875C12.0625 12.0475 11.9228 12.1875 11.75 12.1875ZM12.0625 8.75C12.0625 8.9225 11.9228 9.0625 11.75 9.0625H4.25C4.07719 9.0625 3.9375 8.9225 3.9375 8.75C3.9375 8.5775 4.07719 8.4375 4.25 8.4375H11.75C11.9228 8.4375 12.0625 8.5775 12.0625 8.75Z" fill="#FF7900"/>
</svg>
