<svg width="19" height="19" viewBox="0 0 19 19" fill="none" xmlns="http://www.w3.org/2000/svg">
<path d="M15.6259 18.6875C7.18187 18.6878 0.312188 11.8181 0.3125 3.37407C0.312766 3.29152 0.345682 3.21243 0.404063 3.15407L3.30813 0.250008C3.42533 0.132839 3.58427 0.0670166 3.75 0.0670166C3.91573 0.0670166 4.07467 0.132839 4.19187 0.250008L8.125 4.18313C8.24217 4.30034 8.30799 4.45928 8.30799 4.62501C8.30799 4.79074 8.24217 4.94968 8.125 5.06688L5.44187 7.75001L11.25 13.5581L13.9331 10.875C14.0503 10.7578 14.2093 10.692 14.375 10.692C14.5407 10.692 14.6997 10.7578 14.8169 10.875L18.75 14.8081C18.8672 14.9253 18.933 15.0843 18.933 15.25C18.933 15.4157 18.8672 15.5747 18.75 15.6919L15.8459 18.5959C15.7876 18.6543 15.7085 18.6872 15.6259 18.6875Z" fill="#FF7900"/>
</svg>
