<svg width="117" height="117" viewBox="0 0 117 117" fill="none" xmlns="http://www.w3.org/2000/svg">
<path d="M58.5 0C26.2421 0 0 26.2421 0 58.5C0 90.7579 26.2421 117 58.5 117C90.7579 117 117 90.7579 117 58.5C117 26.2421 90.7579 0 58.5 0ZM88.1497 46.1029L56.4622 77.7904C55.5116 78.741 54.2636 79.2188 53.0156 79.2188C51.7676 79.2188 50.5196 78.741 49.569 77.7904L33.7253 61.9466C31.8191 60.0405 31.8191 56.9595 33.7253 55.0534C35.6314 53.1473 38.7124 53.1473 40.6185 55.0534L53.0156 67.4505L81.2565 39.2096C83.1626 37.3035 86.2436 37.3035 88.1497 39.2096C90.0559 41.1157 90.0559 44.1968 88.1497 46.1029Z" fill="#12DE00"/>
</svg>
